<svg width="40" height="40" viewBox="0 0 40 40" fill="none" xmlns="http://www.w3.org/2000/svg">
<rect width="40" height="40" rx="10" fill="url(#paint0_linear_2_7)"/>
<path fill-rule="evenodd" clip-rule="evenodd" d="M16.4388 14.7619H22.5612C23.3215 14.7619 23.9489 14.7619 24.4601 14.804C24.9909 14.8477 25.4789 14.9416 25.9373 15.1771C26.6481 15.5424 27.2261 16.1251 27.5882 16.8419C27.8218 17.3042 27.9149 17.7963 27.9583 18.3316C28 18.847 28 19.4797 28 20.2464V24.5155C28 25.2822 28 25.9149 27.9583 26.4303C27.9149 26.9656 27.8218 27.4577 27.5882 27.92C27.2261 28.6368 26.6481 29.2196 25.9373 29.5848C25.4789 29.8203 24.9909 29.9142 24.4601 29.9579C23.9489 30 23.3215 30 22.5612 30H16.4388C15.6785 30 15.0511 30 14.5399 29.9579C14.0091 29.9142 13.5211 29.8203 13.0627 29.5848C12.3519 29.2196 11.7739 28.6368 11.4118 27.92C11.1782 27.4577 11.0851 26.9656 11.0417 26.4303C11 25.9149 11 25.2822 11 24.5155V20.2464C11 19.4797 11 18.847 11.0417 18.3316C11.0851 17.7963 11.1782 17.3042 11.4118 16.8419C11.7739 16.1251 12.3519 15.5424 13.0627 15.1771C13.5211 14.9416 14.0091 14.8477 14.5399 14.804C15.0511 14.7619 15.6785 14.7619 16.4388 14.7619ZM14.6938 16.7024C14.2797 16.7365 14.068 16.7984 13.9202 16.8743C13.5648 17.0569 13.2759 17.3483 13.0948 17.7067C13.0195 17.8556 12.9582 18.0692 12.9244 18.4867C12.8896 18.9154 12.8889 19.4699 12.8889 20.2857V24.4762C12.8889 25.292 12.8896 25.8465 12.9244 26.2752C12.9582 26.6927 13.0195 26.9063 13.0948 27.0552C13.2759 27.4136 13.5648 27.705 13.9202 27.8876C14.068 27.9635 14.2797 28.0254 14.6938 28.0595C15.1188 28.0945 15.6688 28.0952 16.4778 28.0952H22.5222C23.3312 28.0952 23.8812 28.0945 24.3062 28.0595C24.7203 28.0254 24.932 27.9635 25.0798 27.8876C25.4352 27.705 25.7241 27.4136 25.9052 27.0552C25.9805 26.9063 26.0418 26.6927 26.0756 26.2752C26.1104 25.8465 26.1111 25.292 26.1111 24.4762V20.2857C26.1111 19.4699 26.1104 18.9154 26.0756 18.4867C26.0418 18.0692 25.9805 17.8556 25.9052 17.7067C25.7241 17.3483 25.4352 17.0569 25.0798 16.8743C24.932 16.7984 24.7203 16.7365 24.3062 16.7024C23.8812 16.6674 23.3312 16.6667 22.5222 16.6667H16.4778C15.6688 16.6667 15.1188 16.6674 14.6938 16.7024Z" fill="white"/>
<path fill-rule="evenodd" clip-rule="evenodd" d="M17.6111 12.3143L17.6111 12.8572C17.6111 13.3832 17.1882 13.8096 16.6666 13.8095C16.145 13.8095 15.7222 13.3831 15.7222 12.8571L15.7223 11.9047C15.7223 11.6591 15.8164 11.4229 15.985 11.2456C16.2141 11.0047 16.5557 10.6544 17.153 10.3931C17.7305 10.1404 18.4754 10 19.5 10C20.5247 10 21.2695 10.1404 21.8471 10.3932C22.4443 10.6545 22.786 11.0048 23.015 11.2456C23.1836 11.4229 23.2778 11.6591 23.2778 11.9048V12.8571C23.2778 13.3831 22.8549 13.8095 22.3333 13.8095C21.8117 13.8095 21.3889 13.3831 21.3889 12.8571V12.3143C21.3053 12.2485 21.2136 12.1923 21.0953 12.1405C20.831 12.0249 20.3642 11.9048 19.5 11.9048C18.6359 11.9048 18.1691 12.0249 17.9048 12.1405C17.7864 12.1923 17.6947 12.2485 17.6111 12.3143Z" fill="white"/>
<path fill-rule="evenodd" clip-rule="evenodd" d="M15.9111 23.7143C16.2241 23.2935 16.8161 23.2082 17.2333 23.5238C17.9951 24.1 18.7336 24.2861 19.4995 24.2857C20.2653 24.2853 21.0055 24.0995 21.7667 23.5238C22.1839 23.2082 22.7759 23.2935 23.0889 23.7143C23.4019 24.1351 23.3173 24.732 22.9 25.0476C21.7723 25.9005 20.6219 26.1899 19.5005 26.1905C18.3758 26.1911 17.2271 25.9 16.1 25.0476C15.6827 24.732 15.5982 24.1351 15.9111 23.7143Z" fill="white"/>
<path d="M14.7778 20.9524C14.7778 20.1634 15.412 19.5238 16.1944 19.5238C16.9768 19.5238 17.6111 20.1634 17.6111 20.9524C17.6111 21.7414 16.9768 22.381 16.1944 22.381C15.412 22.381 14.7778 21.7414 14.7778 20.9524Z" fill="white"/>
<path d="M21.3889 20.9524C21.3889 20.1634 22.0232 19.5238 22.8056 19.5238C23.588 19.5238 24.2222 20.1634 24.2222 20.9524C24.2222 21.7414 23.588 22.381 22.8056 22.381C22.0232 22.381 21.3889 21.7414 21.3889 20.9524Z" fill="white"/>
<defs>
<linearGradient id="paint0_linear_2_7" x1="3.5" y1="2.5" x2="36.5" y2="37.5" gradientUnits="userSpaceOnUse">
<stop stop-color="#9929EA"/>
<stop offset="1" stop-color="#7C3AED"/>
</linearGradient>
</defs>
</svg>
